<?xml version="1.0" standalone="no"?>
<!DOCTYPE svg PUBLIC "-//W3C//DTD SVG 20010904//EN"
 "http://www.w3.org/TR/2001/REC-SVG-20010904/DTD/svg10.dtd">
<svg version="1.0" xmlns="http://www.w3.org/2000/svg"
 width="500.000000pt" height="500.000000pt" viewBox="0 0 500.000000 500.000000"
 preserveAspectRatio="xMidYMid meet">

<g transform="translate(0.000000,500.000000) scale(0.100000,-0.100000)"
fill="#000000" stroke="none">
<path d="M2440 3813 c-14 -2 -40 -9 -58 -15 -32 -10 -33 -12 -30 -56 2 -30 7
-46 15 -45 7 2 37 6 67 9 45 5 57 4 62 -9 9 -25 -21 -77 -86 -149 -57 -63 -65
-79 -62 -121 2 -16 14 -17 140 -15 l137 3 0 40 0 40 -47 3 c-27 2 -48 7 -48
12 0 6 16 31 36 57 49 64 67 108 59 147 -9 41 -51 84 -94 96 -37 10 -47 10
-91 3z"/>
<path d="M2746 3783 c-16 -51 -76 -358 -72 -368 6 -17 145 -38 211 -33 46 4
61 10 91 39 41 40 64 108 64 190 0 47 -5 63 -26 89 -34 40 -63 54 -161 79 -98
25 -100 25 -107 4z m152 -155 c34 -28 -9 -118 -57 -118 -28 0 -30 8 -14 78 13
57 16 62 36 56 12 -3 28 -11 35 -16z"/>
<path d="M2000 3749 c-46 -11 -86 -21 -88 -24 -6 -6 72 -356 83 -370 8 -11 21
-11 63 -2 l54 11 -6 48 c-6 46 -6 48 21 54 42 10 83 33 109 61 19 21 24 37 23
77 0 72 -18 117 -58 143 -42 28 -85 28 -201 2z m124 -115 c20 -8 20 -28 0 -48
-24 -25 -51 -20 -58 11 -10 36 17 53 58 37z"/>
<path d="M3213 3629 c-49 -24 -102 -98 -129 -178 -15 -48 -16 -59 -3 -95 17
-50 82 -101 139 -111 97 -16 195 90 207 225 9 93 -20 139 -106 168 -46 16 -59
15 -108 -9z m92 -119 c16 -49 -43 -151 -79 -137 -30 12 -14 91 26 135 26 27
45 28 53 2z"/>
<path d="M1640 3618 c-65 -34 -85 -67 -84 -141 1 -72 47 -182 89 -215 80 -63
223 -13 254 87 25 84 -45 232 -131 277 -38 20 -77 17 -128 -8z m95 -125 c14
-16 31 -45 37 -66 10 -32 9 -40 -4 -53 -33 -33 -88 33 -88 104 0 50 17 55 55
15z"/>
<path d="M1315 3419 c-67 -36 -176 -121 -172 -133 11 -28 220 -296 231 -296
17 0 96 57 96 69 0 5 -12 24 -26 41 -15 17 -24 33 -21 36 3 3 28 -6 55 -20
l50 -25 46 35 c25 19 46 38 46 42 0 4 -24 21 -54 37 -52 28 -53 30 -49 64 3
28 -2 47 -26 83 -52 81 -109 103 -176 67z m75 -142 c0 -13 -9 -32 -20 -42 -19
-17 -20 -17 -39 6 -20 24 -20 24 0 42 31 25 59 22 59 -6z"/>
<path d="M3565 3422 c-85 -53 -163 -173 -151 -235 8 -42 61 -106 102 -123 94
-39 183 7 248 130 38 71 36 134 -5 181 -58 66 -133 84 -194 47z m99 -117 c14
-38 -49 -125 -91 -125 -17 0 -23 6 -23 20 0 30 26 75 56 99 32 25 50 27 58 6z"/>
<path d="M3910 3193 c-75 -60 -260 -224 -260 -229 0 -3 19 -25 41 -49 l41 -45
30 25 c27 23 48 32 48 20 0 -2 -10 -24 -22 -49 l-21 -44 38 -46 c20 -25 42
-46 47 -46 5 0 20 25 33 55 24 53 26 55 63 55 45 0 114 46 137 91 34 65 12
120 -93 237 l-47 54 -35 -29z m46 -178 c30 -45 -7 -75 -48 -38 -23 20 -23 32
0 49 24 19 29 17 48 -11z"/>
<path d="M968 3127 c-54 -41 -68 -68 -68 -133 0 -65 42 -132 113 -180 90 -62
167 -58 234 12 68 70 70 139 6 203 l-35 35 -40 -43 c-37 -39 -39 -44 -24 -60
24 -26 21 -61 -5 -61 -43 0 -129 68 -129 102 0 24 23 32 50 18 19 -10 26 -8
47 12 41 38 47 57 26 80 -51 56 -113 62 -175 15z"/>
<path d="M2236 2993 c-16 -16 -36 -77 -36 -109 0 -40 3 -40 -167 -23 -91 10
-116 16 -130 32 -13 15 -15 21 -5 24 13 5 17 33 4 33 -12 0 -82 -60 -82 -71 0
-13 28 -11 32 3 2 6 19 -9 36 -33 18 -24 30 -50 27 -57 -3 -8 -5 -27 -5 -43 0
-24 -4 -29 -25 -29 -20 0 -30 10 -51 53 -48 96 -110 139 -200 141 -60 0 -93
-18 -130 -72 -14 -20 -40 -58 -58 -84 -68 -95 -54 -212 35 -299 l50 -49 -168
6 c-92 3 -197 10 -232 15 -35 6 -66 8 -68 5 -7 -7 39 -85 110 -186 379 -537
942 -833 1491 -781 524 50 948 318 1240 785 31 49 53 93 49 97 -13 13 -281 87
-403 110 -81 16 -152 23 -240 23 -149 0 -261 -19 -635 -110 -178 -44 -305 -64
-350 -57 -19 3 -35 8 -35 10 0 3 9 16 20 30 27 35 25 75 -5 111 -33 40 -33 72
-1 72 14 0 27 3 30 8 2 4 10 62 17 129 15 142 13 147 -61 157 l-49 7 2 66 c2
41 8 68 15 71 7 2 12 8 12 13 0 11 -24 12 -34 2z m-546 -238 c121 -62 93 -244
-40 -260 -86 -11 -155 49 -155 135 0 102 107 171 195 125z m473 -230 c62 -8
70 -16 32 -33 -34 -16 -58 -66 -50 -104 l7 -31 -48 7 c-106 15 -301 36 -343
36 l-45 0 47 30 c28 18 60 50 78 78 l30 48 117 -12 c64 -7 143 -16 175 -19z
m105 -75 c28 -26 28 -55 0 -74 -32 -23 -55 -20 -74 9 -19 29 -12 58 19 73 30
15 30 15 55 -8z m-382 -144 c328 -71 627 -237 874 -486 124 -124 194 -214 177
-228 -29 -23 -113 -52 -152 -52 -53 0 -88 25 -210 150 -319 326 -702 527
-1117 585 -49 6 -70 21 -45 30 68 27 353 27 473 1z m1609 14 c72 -5 171 -15
220 -22 l90 -13 -195 -6 c-274 -9 -419 -38 -647 -130 -153 -61 -210 -65 -288
-20 -27 16 -63 42 -78 59 l-28 29 48 21 c84 35 247 69 413 85 76 8 342 6 465
-3z m156 -231 c6 -3 -61 -43 -148 -89 -87 -45 -204 -109 -260 -142 -171 -100
-183 -100 -248 -3 -44 67 -53 55 100 131 116 57 180 77 310 99 81 14 227 16
246 4z m-2020 -23 c206 -60 447 -205 604 -362 66 -67 142 -171 132 -181 -10
-9 -220 48 -271 73 -75 38 -544 376 -634 457 -47 43 41 50 169 13z"/>
<path d="M2979 2860 c-56 -29 -89 -54 -130 -100 -29 -34 -58 -69 -62 -77 -7
-11 -19 -13 -46 -8 -35 6 -47 0 -152 -69 -63 -41 -124 -89 -137 -106 -13 -16
-21 -30 -18 -30 4 0 56 25 116 55 l110 55 62 -10 c34 -5 63 -8 64 -7 1 1 16
28 34 60 18 32 38 56 44 54 53 -20 52 -21 111 68 32 47 60 85 64 85 3 0 15
-14 26 -31 17 -26 46 -50 118 -100 5 -4 1 -19 -8 -33 -16 -24 -23 -26 -54 -21
-33 5 -47 -1 -146 -65 -99 -64 -154 -111 -155 -133 0 -4 50 18 111 48 115 58
110 57 211 39 24 -5 29 1 58 54 31 59 33 60 62 51 17 -4 34 -6 38 -4 4 2 31
41 60 85 29 44 55 80 59 80 3 0 17 -16 31 -35 14 -19 51 -52 82 -72 58 -38 58
-38 58 -88 l0 -49 28 34 28 33 64 -66 c65 -69 80 -78 80 -52 0 24 17 18 92
-30 38 -25 64 -38 56 -28 -7 10 -55 71 -106 135 -93 117 -93 117 -161 139 -47
15 -95 42 -152 85 l-83 62 -56 -28 c-30 -15 -73 -40 -94 -55 l-39 -26 -51 35
c-28 20 -71 51 -96 70 l-45 34 -76 -38z"/>
<path d="M3700 1780 c-12 -8 -13 -13 -3 -29 10 -16 9 -21 -9 -33 -30 -20 -18
-53 16 -44 20 5 25 2 28 -16 4 -30 42 -32 46 -2 2 16 8 20 26 17 15 -3 25 1
30 12 7 20 0 35 -19 35 -8 0 -12 11 -11 31 1 36 -15 47 -37 25 -13 -14 -16
-14 -27 -1 -14 17 -20 18 -40 5z"/>
<path d="M1213 1743 c-15 -6 -17 -43 -3 -43 18 0 10 -18 -11 -23 -28 -8 -21
-41 10 -45 13 -2 26 -12 28 -23 7 -25 43 -25 50 1 3 13 14 20 29 20 32 0 33
37 2 49 -14 5 -17 10 -10 15 17 10 15 43 -3 50 -8 3 -21 -2 -30 -10 -13 -14
-17 -14 -31 0 -8 9 -16 16 -17 15 -1 0 -8 -3 -14 -6z"/>
</g>
</svg>
